<svg xmlns="http://www.w3.org/2000/svg" xmlns:xlink="http://www.w3.org/1999/xlink" version="1.1" x="0px" y="0px" viewBox="0 0 100 125" enable-background="new 0 0 100 100" xml:space="preserve"><g><path fill="#000000" d="M79.193,74.676c-0.04-0.404-0.24-0.775-0.558-1.029L46.265,47.431l26.198-32.453   c0.256-0.314,0.375-0.717,0.332-1.12c-0.045-0.402-0.247-0.771-0.562-1.025l-8.476-6.842c-0.655-0.529-1.615-0.424-2.143,0.229   l-33.867,41.95c-0.151,0.187-0.238,0.406-0.287,0.638c-0.219,0.596-0.066,1.285,0.453,1.707l26.679,21.639H22.325   c-0.842,0-1.525,0.684-1.525,1.525v10.895c0,0.844,0.683,1.525,1.525,1.525h55.283c0.843,0,1.527-0.682,1.527-1.525v-9.301   C79.193,75.08,79.215,74.879,79.193,74.676z M39.077,55.643l4.935-6.114l3.051,2.473l-2.399,3   c-0.151,0.188-0.119,0.463,0.067,0.613c0.081,0.062,0.177,0.096,0.272,0.096c0.128,0,0.253-0.059,0.341-0.164l2.397-2.996   l1.86,1.506l-1.179,1.473c-0.149,0.188-0.119,0.465,0.067,0.613c0.081,0.062,0.177,0.096,0.272,0.096   c0.128,0,0.256-0.059,0.341-0.164l1.175-1.469l1.859,1.504l-1.166,1.459c-0.148,0.189-0.119,0.463,0.068,0.613   c0.08,0.062,0.176,0.098,0.272,0.098c0.127,0,0.255-0.059,0.34-0.166l1.162-1.453l1.859,1.506l-2.361,2.955   c-0.149,0.188-0.119,0.463,0.067,0.613c0.081,0.064,0.177,0.094,0.272,0.094c0.128,0,0.256-0.055,0.341-0.162l2.359-2.951   l1.862,1.506l-1.143,1.428c-0.151,0.188-0.119,0.463,0.068,0.613c0.08,0.064,0.176,0.094,0.272,0.094   c0.127,0,0.253-0.055,0.34-0.162l1.139-1.426l1.859,1.508l-1.13,1.412c-0.151,0.188-0.119,0.465,0.068,0.613   c0.081,0.062,0.177,0.096,0.272,0.096c0.128,0,0.253-0.059,0.34-0.164l1.126-1.408l1.86,1.506l-2.107,2.635   c-0.148,0.188-0.119,0.461,0.068,0.613c0.081,0.062,0.179,0.094,0.272,0.094c0.128,0,0.255-0.057,0.341-0.162l2.102-2.631   l1.862,1.506l-1.104,1.383c-0.148,0.189-0.119,0.461,0.068,0.611c0.081,0.064,0.177,0.096,0.272,0.096   c0.128,0,0.255-0.055,0.34-0.164l1.103-1.375l1.859,1.506l-1.094,1.365c-0.148,0.188-0.119,0.463,0.068,0.613   c0.081,0.064,0.177,0.094,0.272,0.094c0.128,0,0.255-0.055,0.341-0.162l1.089-1.361l7.484,6.061l-4.997,6.1L39.077,55.643z    M63.028,9.323l6.103,4.926l-1.634,2.026l-2.064-1.629c-0.188-0.149-0.464-0.116-0.613,0.072c-0.148,0.189-0.114,0.463,0.072,0.613   l2.056,1.623l-1.502,1.862l-3.554-2.805c-0.188-0.149-0.464-0.116-0.612,0.072c-0.149,0.189-0.115,0.463,0.072,0.613l3.547,2.798   l-1.505,1.862l-2.004-1.582c-0.189-0.149-0.464-0.116-0.613,0.072c-0.148,0.189-0.114,0.464,0.072,0.613l1.998,1.576l-1.504,1.862   l-1.975-1.56c-0.191-0.149-0.464-0.116-0.613,0.072c-0.148,0.189-0.116,0.464,0.073,0.613l1.968,1.554l-1.504,1.862l-3.469-2.735   c-0.189-0.148-0.464-0.115-0.613,0.072c-0.148,0.189-0.114,0.464,0.072,0.613l3.463,2.729l-1.505,1.862l-1.917-1.513   c-0.189-0.15-0.466-0.118-0.611,0.071c-0.15,0.189-0.119,0.462,0.07,0.611l1.913,1.509l-1.504,1.862L53.3,30.029   c-0.191-0.149-0.462-0.115-0.613,0.072c-0.148,0.187-0.115,0.464,0.072,0.613l1.886,1.485l-1.505,1.86l-3.104-2.449   c-0.191-0.147-0.464-0.117-0.612,0.072c-0.149,0.189-0.117,0.461,0.072,0.613l3.098,2.445l-1.504,1.86l-1.832-1.445   c-0.189-0.149-0.464-0.117-0.613,0.072c-0.148,0.189-0.114,0.462,0.072,0.613l1.826,1.44l-1.505,1.86l-1.802-1.422   c-0.191-0.147-0.464-0.117-0.613,0.072c-0.148,0.189-0.117,0.464,0.072,0.613l1.796,1.417l-1.504,1.861l-3.02-2.381   c-0.188-0.148-0.46-0.115-0.613,0.072c-0.148,0.188-0.114,0.462,0.073,0.613l3.013,2.374l-1.503,1.862l-1.746-1.377   c-0.189-0.148-0.464-0.114-0.613,0.072c-0.148,0.188-0.117,0.462,0.072,0.613l1.738,1.37l-1.451,1.798   c-0.019,0.023-0.021,0.052-0.038,0.075l-1.731-1.366c-0.192-0.149-0.462-0.115-0.613,0.072c-0.148,0.191-0.115,0.464,0.072,0.612   l1.992,1.57c0,0.047-0.016,0.092-0.011,0.137L37.521,54.1l-6.377-5.147l5.777-7.122c0.117-0.145,0.194-0.311,0.249-0.477   L63.028,9.323z M23.851,75.203h34.504l9.669,7.844h-2.086v-1.289c0-0.238-0.195-0.436-0.436-0.436s-0.437,0.197-0.437,0.436v1.289   h-2.392V79.82c0-0.238-0.195-0.434-0.438-0.434c-0.238,0-0.434,0.195-0.434,0.434v3.227h-2.395v-1.289   c0-0.238-0.195-0.436-0.436-0.436c-0.241,0-0.437,0.197-0.437,0.436v1.289h-2.394v-1.289c0-0.238-0.196-0.436-0.435-0.436   c-0.242,0-0.438,0.197-0.438,0.436v1.289h-2.392V79.82c0-0.238-0.195-0.434-0.436-0.434c-0.241,0-0.437,0.195-0.437,0.434v3.227   h-2.392v-1.289c0-0.238-0.196-0.436-0.438-0.436c-0.238,0-0.435,0.197-0.435,0.436v1.289h-2.394v-1.289   c0-0.238-0.195-0.436-0.437-0.436c-0.24,0-0.436,0.197-0.436,0.436v1.289h-2.395v-2.873c0-0.24-0.195-0.436-0.434-0.436   c-0.242,0-0.438,0.195-0.438,0.436v2.873h-2.392v-1.289c0-0.238-0.195-0.436-0.437-0.436c-0.24,0-0.436,0.197-0.436,0.436v1.289   h-2.392v-1.289c0-0.238-0.196-0.436-0.438-0.436c-0.238,0-0.435,0.197-0.435,0.436v1.289h-2.394v-2.873   c0-0.24-0.196-0.436-0.437-0.436c-0.24,0-0.436,0.195-0.436,0.436v2.873h-2.394v-1.289c0-0.238-0.195-0.436-0.434-0.436   c-0.243,0-0.438,0.197-0.438,0.436v1.289h-2.392v-1.289c0-0.238-0.196-0.436-0.437-0.436c-0.24,0-0.436,0.197-0.436,0.436v1.289   h-2.033V75.203z M72.918,83.047l3.167-3.863v3.863H72.918z"/><path fill="#000000" d="M37.034,45.031c-1.364,0-2.473,1.106-2.473,2.471c0,1.363,1.109,2.47,2.473,2.47   c1.362,0,2.471-1.106,2.471-2.47C39.505,46.137,38.396,45.031,37.034,45.031z M37.034,49.099c-0.883,0-1.6-0.715-1.6-1.598   c0-0.884,0.717-1.599,1.6-1.599c0.881,0,1.598,0.715,1.598,1.599C38.632,48.384,37.915,49.099,37.034,49.099z"/><path fill="#000000" d="M72.646,75.756c0-1.361-1.105-2.469-2.47-2.469s-2.471,1.107-2.471,2.469c0,1.365,1.106,2.473,2.471,2.473   S72.646,77.121,72.646,75.756z M70.176,77.357c-0.884,0-1.599-0.717-1.599-1.602c0-0.881,0.715-1.598,1.599-1.598   c0.883,0,1.598,0.717,1.598,1.598C71.773,76.641,71.059,77.357,70.176,77.357z"/></g><text x="0" y="115" fill="#000000" font-size="5px" font-weight="bold" font-family="'Helvetica Neue', Helvetica, Arial-Unicode, Arial, Sans-serif">Created by Patrick Trouvé</text><text x="0" y="120" fill="#000000" font-size="5px" font-weight="bold" font-family="'Helvetica Neue', Helvetica, Arial-Unicode, Arial, Sans-serif">from the Noun Project</text></svg>